<svg width="115" height="100" viewBox="0 0 115 100" fill="none" xmlns="http://www.w3.org/2000/svg">
<rect width="115" height="100" fill="#F23005"/>
<path d="M48 44.75C48 41.8543 50.3543 39.5 53.25 39.5C53.291 39.5 53.3402 39.5 53.3812 39.5C53.9883 36.5059 56.6379 34.25 59.8125 34.25C61.043 34.25 62.1914 34.5863 63.1676 35.1687C64.2586 33.0687 66.4652 31.625 69 31.625C71.5348 31.625 73.7414 33.0687 74.8324 35.1687C75.8086 34.5863 76.957 34.25 78.1875 34.25C81.3621 34.25 84.0117 36.5059 84.6187 39.5C84.6598 39.5 84.709 39.5 84.75 39.5C87.6457 39.5 90 41.8543 90 44.75C90 45.7098 89.7457 46.6039 89.2945 47.375H48.7055C48.2543 46.6039 48 45.7098 48 44.75ZM48 52.2477C48 51.009 49.009 50 50.2477 50H87.7523C88.991 50 90 51.009 90 52.2477C90 58.0309 86.3578 62.9691 81.2473 64.8887L81.0996 66.0781C80.9355 67.3906 79.8199 68.375 78.491 68.375H59.5008C58.1801 68.375 57.0563 67.3906 56.8922 66.0781L56.7445 64.8969C51.6422 62.9691 48 58.0309 48 52.2477Z" fill="#F3E5D8"/>
<path d="M26.4001 29C25.2588 29 24.3032 30.05 24.2069 31.4035L23.2444 45.2176C22.8319 51.1238 26.1663 56.3082 30.8001 57.5715V65.75H27.5001C26.2832 65.75 25.3001 66.923 25.3001 68.375C25.3001 69.827 26.2832 71 27.5001 71H33.0001H38.5001C39.7169 71 40.7001 69.827 40.7001 68.375C40.7001 66.923 39.7169 65.75 38.5001 65.75H35.2001V57.5797C39.8338 56.3164 43.1682 51.132 42.7557 45.2258L41.7932 31.4117C41.6969 30.05 40.7413 29 39.6001 29H26.4001ZM27.6307 45.6605L28.4213 34.25H37.5788L38.3763 45.6605C38.6376 49.4094 36.1557 52.625 33.0001 52.625C29.8444 52.625 27.3626 49.4094 27.6307 45.6605Z" fill="#F3E5D8"/>
</svg>
